<?xml version="1.0" encoding="UTF-8"?>
<svg data-id="Logo" xmlns="http://www.w3.org/2000/svg" viewBox="0 0 27 4">
  <defs>
    <style>
      .cls-1 {
        fill: #fff;
        stroke-width: 0px;
      }
    </style>
  </defs>
  <polygon class="cls-1" points="2 0 3 0 3 4 0 4 2 0"/>
  <polygon class="cls-1" points="4 2 3 4 6 4 5 2 4 2"/>
  <polygon class="cls-1" points="6 4 8 0 7 0 7 1 5 1 6 2 6 4"/>
  <rect class="cls-1" x="7" y="2" width="2" height="2"/>
  <polygon class="cls-1" points="10 2 9 4 12 4 11 2 10 2"/>
  <polygon class="cls-1" points="12 4 12 2 13 2 12 4"/>
  <polygon class="cls-1" points="12 0 12 1 13 1 12 0"/>
  <rect class="cls-1" x="13" y="2" width="2" height="2"/>
  <polygon class="cls-1" points="19 0 16 0 16 4 19 4 17 2 19 0"/>
  <rect class="cls-1" x="19" y="2" width="2" height="2"/>
  <polygon class="cls-1" points="22 4 20 0 21 0 21 1 23 1 22 2 22 4"/>
  <polygon class="cls-1" points="24 4 26 0 25 0 25 1 23 1 24 2 24 4"/>
  <rect class="cls-1" x="25" y="2" width="2" height="2"/>
</svg>